<svg xmlns="http://www.w3.org/2000/svg" xmlns:xlink="http://www.w3.org/1999/xlink" version="1.1" x="0px" y="0px" viewBox="0 0 1000 1000" style="enable-background:new 0 0 1000 1000;" xml:space="preserve" fill="#f0f8ff"><g><path d="M695.7,765.7c-7.2,0-12.8-1-16.9-3c-4.7-2.3-5.5-2.5-10-1.5c-2.2,0.5-7.1-0.5-9.5-2.9   c-1.6-1.7-2.3-4-1.7-6.2c0.6-2.4,1.1-5.2,1.5-8.6c0.8-6.8,4-12.1,9.2-15.4c9.7-6.1,23.7-3.6,30.7-1.7   c13.5-16.6,13.9-29.3,13.9-29.5V696l0.2-0.7c5.5-19.9-9.1-46.4-11.8-51.1c-12.4-11.3-26.9-39.5-29.7-45.1   c-25.4-25.1-25.1-74.7-25.1-76.8l0-3.7l3.3-1.6c9.7-4.7,18.4-5.1,26-1.1c15.1,7.9,18.7,30.5,18.8,31.4l0.1,0.4v0.5   c0,7.5,15.7,32.1,26.9,47.2c21.9,25.1,40.7,72.7,41.5,74.7l0.8,2l-12.6,38.3l-31.9,52.7l-2.7,0.5   C708.6,765,701.6,765.7,695.7,765.7z M672.6,748.7c3.7,0,6.8,1.1,11.3,3.2c2.8,1.3,10.1,3.1,28.1,0.4l28.3-46.8l10.8-32.9   c-3.8-9.3-20.5-48.6-38.7-69.4l-0.3-0.4c-4.9-6.5-28.8-39.5-29.4-54c-0.9-5.1-4.6-18.2-12.5-22.3c-3.3-1.7-7.1-1.8-11.7-0.2   c0.5,11.7,3.4,47.2,22,64.8l0.8,0.7l0.5,1c4.5,9.1,18.2,34.5,28,42.9l0.7,0.6l0.5,0.8c0.9,1.4,20.6,33.9,13.8,60.6   c-0.3,4-2.4,20.1-19.3,39.3l-2.7,3l-3.8-1.3c-4.3-1.5-17.9-4.7-24.4-0.6c-1.3,0.8-3.2,2.5-3.7,6.7c-0.2,1.4-0.3,2.7-0.5,3.9   C671.2,748.7,671.9,748.7,672.6,748.7z"/></g><g><path d="M775.9,787c-2.1,0-4-0.4-5.5-0.9c-2.9-1-5.3-2.8-7.3-4.8c-0.3,0.4-0.6,0.7-1,1c-7.1,6.7-18.4,4.4-19.7,4.1   l-4.4-1l-0.1-0.8c-2.1-0.2-3.9-1-5.2-2l-1.4-1l-0.6-1.6c-2.5-6.5-2.4-12.8,0.5-18.2c5.6-10.7,19.2-14.3,20.8-14.7l1.7-0.4l1.1,0.4   c2.3-1.9,5.8-10.6,7.5-18.7c6.8-41.2-27.8-91.3-28.1-91.8l9.8-6.9c1.5,2.2,37.8,54.6,30.1,100.8l0,0.2c-1.1,5.1-5.2,22.3-13.7,27.1   c-2.1,1.2-4.4,1.7-6.7,1.4c-3,1-8.5,3.4-11.1,7.2l6.3-0.4l0.6,9.1c1.7-0.1,3.5-0.5,4.5-1.4c1.6-1.6,1.3-5.2,1-7.2l11.7-2.6   c0.9,3,4,9.8,7.8,11.1c1.8,0.6,4.2,0,6.9-2l1.9-1.3l1.5,0.2c1.6-0.3,4.1-2.8,4.3-10.3l0-0.2c0-0.1,0.8-12.3,1.9-24.4   c0.6-7.1,1.3-12.9,1.8-17c0.4-3.2,0.8-5.9,1.6-8.1c-0.4-2.5-0.9-6.9-1.2-11.4c-0.3-4.4-0.8-12.3,2.4-16.7   c0.2-5.7,1.1-18.1,3.6-25.4c-0.3-1.7-2.2-8.3-13.7-23c-4.4-4.4-33.5-37.9-15.8-147l0.1-0.6l0.2-0.6c0.5-1.4,13.1-35.6-14.2-76.5   l-2.3-3.5l2.5-3.4c1.4-1.9,34.7-46.6,63.1-61.3c9.1-8.5,15.7-18.6,14.8-21.1l0,0c0,0-2.1-2.2-13.2-1.2c-8.8,5-20.7,14.3-21.7,20.8   l-0.4,2.6l-53.2,36.7c-2,1.2-13.3,6.5-40.6-6.2l-0.6-0.3l-0.3-0.2c-1.5-0.9-35-19.1-143.4,11.9l-0.4,0.1c-0.9,0.2-22.2,4.5-53,4.2   c-28.5-0.3-70.8-4.9-110.4-25l-0.9-0.5l-70.7-72.6l-0.4-1.2c-0.1-0.3-12.3-33.3-23.6-50.3l-10-6.8c-0.7,1-1.5,2.4-2.5,4.3l-1.6,3.1   l-3.1,0.1c-0.3,0.1-1.3,0.3-1.8,1c-0.5,0.7-0.7,2.2-0.4,4l1.1,6.9l-7,0.1c-22.8,0.4-49.8,5.2-54.6,12.3   c-2.3,5.7-13.7,18.9-69.9,13.1c-3.3,8.3-9.8,28.6-3.5,44.2c3.3,8.2,9.6,13.9,19.3,17.4c5.8,2.1,57,20.4,69.5,30.1   c3,1.6,22.3,11.8,45.8,16.6l2.1,0.4l1.3,1.6c1.7,2,41.5,50.5,46.5,102.3c1.3,4.8,12.6,43.8,28.1,61.7l0.6,0.6l0.4,0.8   c0.9,1.9,21.7,48.1,16.2,112.5c0,15.6,1.5,34.5,3.7,38l1.5,2.5l-16,44.8l-3.5,0.6c-0.1,0-9.2,1.5-18.4,4.4   c-15.1,4.7-16.4,8.7-16.4,8.7l0,0c0,0,0.1,0.7,1.6,2.1c5.6,1.1,26.8,4.5,48.9-0.4l19.9-55.8l4.7,0.5c0.8,0.1,2,0,2.6-0.2   c-0.1-0.8-0.6-2.7-2.8-6.3l-1.1-1.8l0.3-2.1c3-25.2,7.4-94.7-7.9-113.5l9.3-7.6c9.3,11.4,13.9,35.7,13.6,72.2   c-0.2,22.2-2.1,41.9-2.8,48.2c2.3,3.9,5.7,11.3,1.9,17.4c-2.3,3.7-6.2,5.1-9.4,5.5l-19.1,53.6l-3.1,0.8c-29.7,7.7-57.9,1.2-59.1,1   l-1.4-0.3l-1.1-0.9c-7.2-6-7.6-11.7-6.5-15.5c1.9-7.1,9.9-12.5,25-17.2c6.2-1.9,12.3-3.2,15.9-4l11.9-33.2   c-3.8-10.6-4.2-34.1-4.2-41.7l0-0.5c5-56.9-12.3-100-14.8-106c-17.9-21.3-29.6-64.3-30.1-66.2l-0.1-0.5l0-0.5   c-3.9-43.2-35.8-86-42.5-94.7c-26.3-5.8-46.7-17.2-47.5-17.7l-0.5-0.3l-0.4-0.3c-7.5-6.3-43.8-20.4-66.4-28.5   c-12.9-4.8-21.8-12.9-26.4-24.2c-10.1-25,4.8-56.4,5.5-57.8l1.9-3.8l4.2,0.5c51.2,5.9,60.9-4.1,61.9-5.4l0-0.2l0.4-0.6   c8.2-14.5,43.5-17.8,59.2-18.5c0.5-2.9,1.7-5.1,2.8-6.5c2-2.6,4.5-4,6.5-4.7c2.2-4,6.3-10.1,11.5-10.1h1.9l17.2,11.8l0.6,0.9   c11.1,16.3,22.7,46.2,25.1,52.6l67.5,69.3c69.9,34.9,149.9,20.2,154.5,19.3c110.7-31.6,147.7-13.5,152.6-10.5   c19.6,9,27.9,6.9,29.2,6.5l48.3-33.4c4.4-14.2,25.7-26.1,28.3-27.5l1-0.6l1.2-0.1c5.4-0.6,22-2.2,26.6,8.2   c5.5,12.4-12.6,30.2-18.3,35.4l-0.6,0.6l-0.7,0.4c-21.9,11-48.9,44.2-57.1,54.8c26.1,42.1,15.2,77.8,13.3,83.3   c-17.3,107,12.2,135.7,12.5,136l0.4,0.4l0.3,0.4c16.5,20.9,17.3,30,16.3,33.5l-0.2,0.6c-2,4.9-3.1,18-3.2,25l-0.1,4.9l-2.3,0.4   c-0.4,3.7,0.1,12.1,1.4,19.9l0.9,5.7l-2.2,0.4c-1.2,7.2-3,26.6-4.1,43.9c-0.5,15.2-8.4,20.5-14,21.6C782.8,786.2,779,787,775.9,787   z"/></g><g><path d="M419.4,810.9c-2.3,0-4.6-0.1-7.1-0.3c-0.4,0-0.7,0-1,0c-3.2,0.5-11.4,0.8-16.6-5.3c-1.2-1.4-3.2-1.8-5.1-1.1   c-5.2,2-8.8,0.3-10.4-0.8c-5-3.5-5.4-10.5-5.2-15.4c0.1-4,1.7-7.9,4.5-10.8c4.9-5.1,14.7-14,26.1-16c1.4-0.3,2.6-1.3,3.2-2.7   c3.6-9.5,8.4-29.6,0.3-56.8c-0.5-1.5-0.7-3.1-0.7-4.6c-0.2-44.5-2.8-96.3-8.3-105l10.2-6.4c8.8,14.1,10,82.6,10.1,111.4   c0,0.4,0.1,0.8,0.2,1.3c9.1,30.5,3.5,53.5-0.6,64.4c-2,5.3-6.7,9.3-12.3,10.3c-8.4,1.5-16.5,9.2-19.6,12.5   c-0.8,0.8-1.2,1.8-1.2,2.9c-0.1,2.1,0.1,3.5,0.2,4.4c6.4-2.1,13.4-0.2,17.7,4.8c1.1,1.3,3.8,1.5,5.8,1.2c1.2-0.2,2.5-0.2,3.8-0.1   c11.5,1.1,19.8-0.8,24.7-5.5c5.4-5.2,5.3-12.9,5.2-14.4c0-0.8,0-1.6,0-2.3l3-35.6c0.5-5.6,3.7-10.5,8.7-13.1c3-1.6,0.6-9.2-1.2-13   c-0.9-2-1.4-4.3-1.4-6.6c-0.5-70.9,3-103.6,6-118.5c1.5-7.6,8.1-13,15.9-13.1c62.5-0.8,175.5-59.8,176.6-60.3l5.6,10.6   c-4.7,2.5-116.7,60.9-182,61.7c-2.1,0-3.8,1.5-4.3,3.5c-2.4,11.8-6.3,42.5-5.8,116.1c0,0.6,0.1,1.2,0.4,1.7   c6.1,13.4,4.5,24.1-4.3,28.6c-1.2,0.6-2.1,2-2.2,3.4l-3,35.6c0,0.2,0,0.4,0,0.6c0.2,3.4,0.1,15.1-8.9,23.7   C440.2,807.9,431.1,810.9,419.4,810.9z"/></g><g><path d="M247,265c0,0-16,6-7.3,11.3C248.3,281.7,259.7,275.7,247,265z"/></g></svg>