<svg xmlns="http://www.w3.org/2000/svg" xmlns:xlink="http://www.w3.org/1999/xlink" version="1.1" x="0px" y="0px" viewBox="0 0 32 32" enable-background="new 0 0 32 32" xml:space="preserve" fill="#333333"><path d="M27.373,20.739c-0.729-0.196-1.352-0.001-1.969,0.237c-0.203,0.078-0.416,0.161-0.654,0.232l-0.365,0.113  c-0.629,0.2-0.916,0.291-2.344,0.291c-0.426,0-0.727,0.009-0.94,0.015c-0.159,0.005-0.28,0.009-0.339,0.005c0,0,0,0,0-0.001  c-0.021-0.048-0.047-0.108-0.084-0.178c-0.029-0.074-0.029-0.376-0.029-0.619c0-1.132,0-3.237-1.749-4.736  c-2.14-1.835-4.067-2.293-5.218-2.567l-0.17-0.04c-0.374-0.091-0.611-0.229-0.703-0.41c-0.137-0.268,0.024-0.664,0.154-0.982  c0.055-0.133,0.103-0.253,0.129-0.352c0.111-0.416,0.207-1.03,0.055-1.641c0.586-2.049,0.227-2.289,0.107-2.368  c-0.082-0.055-0.177-0.083-0.283-0.083c-0.428,0-0.982,0.495-1.273,0.823c-0.33-0.169-1.012-0.423-1.672-0.338  C9.864,7.77,9.551,7.167,9.174,7.029C9.143,7.019,9.055,7.002,9.021,7.002c-0.546,0-0.567,0.813-0.593,1.757  C8.424,8.87,8.422,8.979,8.417,9.079c-0.142,0.254-0.614,1.179-0.463,1.982c0.003,0.008,0.279,0.785,0.009,1.364  c-0.374,0.804-1.499,3.566-0.459,5.74c-0.225,0.992-0.93,3.324-1.844,3.65c-0.481,0.172-0.856,0.203-1.045,0.185  c-0.33-0.035-0.462,0.078-0.619,0.281c-0.351,0.449-0.613,1.042-0.303,1.353c0.053,0.054,0.125,0.084,0.201,0.084H5.85  c0.047,0,0.095-0.012,0.137-0.035c0.109-0.061,2.643-1.467,3.947-2.942c0.303,0.012,0.746,0.092,0.803,0.338  c0.073,0.318-0.018,0.803-0.208,1.104c-0.082,0.13-0.153,0.176-0.183,0.182c-0.35,0.078-0.632,0.383-0.778,0.642  c-0.085,0.149-0.215,0.44-0.128,0.704c0.039,0.116,0.148,0.195,0.271,0.195h1.336c0.025,0,0.05-0.003,0.074-0.01  c0.047-0.013,1.129-0.316,1.443-1.44c0.043-0.021,0.097-0.044,0.158-0.061c0.041,0.283,0.112,0.732,0.189,1.073  c-0.27,0.147-0.705,0.433-0.897,0.816c-0.11,0.221-0.048,0.383,0.001,0.46c0.141,0.228,0.448,0.254,0.668,0.254  c0.315,0,0.713-0.065,0.991-0.121c0.095-0.02,0.222-0.038,0.368-0.06c0.714-0.105,1.301-0.211,1.594-0.469  c0.223,0.038,0.643,0.094,1.141,0.094c0.84,0,1.995-0.165,2.728-0.955c0.497-0.535,0.851-0.607,1.131-0.607  c0.245,0,0.509,0.063,0.815,0.136c0.387,0.094,0.826,0.198,1.373,0.215l0.162,0.002c0.855,0,1.605-0.188,2.267-0.355  c0.544-0.137,0.996-0.254,1.343-0.209c1.176,0.157,1.779-0.346,1.844-0.834C28.49,21.457,28.235,20.972,27.373,20.739z   M26.67,22.104c-0.434-0.057-0.95,0.069-1.556,0.222c-0.63,0.157-1.343,0.337-2.128,0.337L22.84,22.66  c-0.486-0.014-0.896-0.111-1.256-0.198c-0.327-0.078-0.637-0.152-0.948-0.152c-0.563,0-1.041,0.244-1.549,0.79  c-0.593,0.639-1.583,0.773-2.31,0.773c-0.664,0-1.186-0.111-1.19-0.113c-0.126-0.029-0.256,0.031-0.313,0.148  c-0.117,0.169-0.986,0.298-1.314,0.346c-0.156,0.023-0.295,0.044-0.396,0.064c-0.418,0.083-0.783,0.119-0.966,0.107  c0.201-0.257,0.606-0.475,0.765-0.545c0.131-0.058,0.199-0.204,0.158-0.343c-0.131-0.438-0.269-1.479-0.27-1.49l0,0  c-0.008-0.072-0.133-1.5,2.297-2.002c0.154-0.032,0.254-0.183,0.221-0.337c-0.031-0.154-0.18-0.253-0.336-0.222  c-2.271,0.47-2.676,1.738-2.74,2.327c-0.285,0.053-0.512,0.204-0.541,0.225c-0.057,0.041-0.098,0.102-0.113,0.171  c-0.172,0.794-0.871,1.071-1.033,1.125h-0.967c0.084-0.167,0.251-0.373,0.433-0.414c0.203-0.045,0.39-0.194,0.54-0.434  c0.271-0.427,0.389-1.073,0.281-1.537c-0.109-0.476-0.566-0.661-0.971-0.733c0.228-0.341,0.527-0.841,0.68-1.313  c0.049-0.149-0.033-0.311-0.182-0.358c-0.15-0.048-0.311,0.032-0.359,0.183c-0.225,0.69-0.848,1.51-0.876,1.548  c-1.104,1.305-3.399,2.641-3.809,2.873H4.151c0.038-0.117,0.124-0.299,0.294-0.518c0.049-0.063,0.07-0.079,0.111-0.064  c0.244,0.026,0.727-0.012,1.295-0.215c1.412-0.504,2.15-3.79,2.23-4.164c0.014-0.063,0.004-0.13-0.025-0.188  c-1.026-2.008,0.173-4.795,0.424-5.334c0.02-0.044,0.031-0.09,0.047-0.135c0.281,0.322,0.701,0.585,1.309,0.585  c0.158,0,0.285-0.127,0.285-0.285c0-0.157-0.127-0.278-0.285-0.284c-1.164-0.048-1.332-1.635-1.334-1.635  C8.4,10.363,8.786,9.568,8.943,9.309c0.023-0.04,0.038-0.086,0.04-0.134c0.006-0.122,0.01-0.259,0.014-0.401  C9.006,8.455,9.021,7.91,9.083,7.649C9.231,7.815,9.441,8.19,9.584,8.564C9.635,8.699,9.778,8.775,9.919,8.74  c0.128-0.032,0.263-0.049,0.401-0.049c0.688,0,1.285,0.39,1.291,0.394c0.064,0.043,0.144,0.059,0.219,0.041  c0.074-0.017,0.141-0.063,0.181-0.127c0.138-0.221,0.649-0.679,0.896-0.761c0.024,0.277-0.115,1.052-0.328,1.785  c-0.016,0.052-0.016,0.106,0,0.158c0.115,0.405,0.103,0.896-0.037,1.419c-0.021,0.079-0.062,0.175-0.105,0.282  c-0.165,0.404-0.391,0.958-0.135,1.458c0.172,0.336,0.534,0.572,1.078,0.704l0.17,0.041c1.102,0.262,2.943,0.701,4.979,2.445  c1.55,1.328,1.55,3.19,1.55,4.304c0,0.441,0,0.708,0.096,0.885c0.029,0.056,0.049,0.102,0.064,0.139  c0.115,0.268,0.248,0.346,0.589,0.346c0.074,0,0.169-0.003,0.289-0.006c0.211-0.006,0.507-0.015,0.925-0.015  c1.516,0,1.85-0.106,2.516-0.318l0.357-0.11c0.253-0.076,0.48-0.163,0.695-0.246c0.563-0.219,1.036-0.376,1.615-0.219  c0.451,0.121,0.669,0.328,0.65,0.469C27.85,21.938,27.424,22.203,26.67,22.104z"/><circle cx="9.532" cy="10.011" r="0.304"/><circle cx="11.527" cy="10.315" r="0.304"/><ellipse transform="matrix(0.1567 -0.9876 0.9876 0.1567 -2.4058 19.6629)" cx="10.312" cy="11.24" rx="0.268" ry="0.42"/></svg>